:FULLY-SPECIFIED
:DEGREES
3199
root 1.03899 15.6575 -2.15173 5077.65 -97.4759 -5074.56
lowerback 5.08547 0.538806 -8.94038
upperback -1.8028 0.0871609 0.141883
thorax -4.77698 0.30956 5.16714
lowerneck -15.9865 1.61237 1.8584
upperneck 20.8143 2.29144 -3.08967
head 9.24786 0.795164 -1.09559
rclavicle -2.38542e-015 1.72943e-014
rhumerus -38.0804 -22.1356 -74.3062
rradius 13.8007
rwrist 21.1211
rhand -28.3776 -18.0204
rfingers 7.12502
rthumb -1.75062 -47.9929
lclavicle -2.38542e-015 1.72943e-014
lhumerus -17.8599 -12.1146 91.3808
lradius 32.4299
lwrist 13.0744
lhand -32.9923 16.0825
lfingers 7.12502
lthumb -6.20678 45.9716
rfemur -31.8235 0.096489 17.1666
rtibia 51.506
rfoot -16.1756 -22.0217
rtoes -11.2278
lfemur -6.24946 -3.72855 -31.1853
ltibia 21.9726
lfoot -14.2827 8.54981
ltoes -9.24778
3200
root 1.05479 15.6679 -2.15141 5078.39 -97.4677 -5075.07
lowerback 4.95174 0.559524 -9.03716
upperback -1.85706 0.118066 0.133974
thorax -4.76429 0.328577 5.21029
lowerneck -15.9833 1.56276 1.82561
upperneck 20.8204 2.21271 -3.01029
head 9.24573 0.76487 -1.07279
rclavicle -2.38542e-015 2.06736e-014
rhumerus -37.4504 -21.6261 -75.0756
rradius 13.9273
rwrist 21.1514
rhand -28.6019 -17.8673
rfingers 7.12502
rthumb -1.96728 -47.838
lclavicle -2.38542e-015 2.06736e-014
lhumerus -17.9033 -12.276 91.3786
lradius 32.3531
lwrist 13.0658
lhand -33.0078 15.9455
lfingers 7.12502
lthumb -6.22174 45.8342
rfemur -32.1794 0.556585 17.1866
rtibia 49.1032
rfoot -16.3735 -21.5494
rtoes -10.9882
lfemur -5.57968 -3.65307 -31.2969
ltibia 21.2924
lfoot -14.2387 8.44802
ltoes -9.56719
3201
root 1.07266 15.6747 -2.15204 5079.16 -97.4653 -5075.61
lowerback 4.84934 0.578089 -9.10897
upperback -1.91165 0.143919 0.111763
thorax -4.76875 0.344829 5.2248
lowerneck -15.9841 1.51768 1.80994
upperneck 20.8193 2.14213 -2.95799
head 9.24272 0.736803 -1.06105
rclavicle -3.18055e-015 -2.5842e-015
rhumerus -36.7773 -21.4519 -75.6877
rradius 13.9842
rwrist 21.1753
rhand -28.7344 -17.5712
rfingers 7.12502
rthumb -2.09518 -47.5407
lclavicle -3.18055e-015 -2.5842e-015
lhumerus -18.0153 -12.4941 91.3753
lradius 32.3045
lwrist 12.9662
lhand -33.0979 15.9202
lfingers 7.12502
lthumb -6.30872 45.8063
rfemur -32.4461 1.07925 17.1457
rtibia 46.6405
rfoot -16.3817 -20.9213
rtoes -11.3311
lfemur -4.83963 -3.54183 -31.4026
ltibia 20.4864
lfoot -14.1938 8.29078
ltoes -9.54391
3202
root 1.09055 15.681 -2.15392 5080.48 -97.5003 -5076.7
lowerback 4.68969 0.59297 -9.27358
upperback -1.93474 0.165439 0.0733076
thorax -4.70769 0.357261 5.27488
lowerneck -16.0352 1.47187 1.7996
upperneck 20.8184 2.07302 -2.92055
head 9.24942 0.708141 -1.05491
rclavicle -1.59028e-015 1.42131e-014
rhumerus -35.9377 -21.0224 -76.5438
rradius 14.1302
rwrist 20.7207
rhand -28.8536 -17.6472
rfingers 7.12502
rthumb -2.21029 -47.6155
lclavicle -1.59028e-015 1.42131e-014
lhumerus -18.1218 -12.6328 91.3648
lradius 32.3389
lwrist 13.023
lhand -33.0083 16.0917
lfingers 7.12502
lthumb -6.22218 45.9803
rfemur -32.6762 1.75686 16.9663
rtibia 44.1335
rfoot -16.2965 -20.5244
rtoes -11.6446
lfemur -4.05817 -3.46004 -31.582
ltibia 19.582
lfoot -14.0287 8.16036
ltoes -10.2735
3203
root 1.10439 15.6898 -2.15634 5081.62 -97.5277 -5077.66
lowerback 4.57573 0.622178 -9.38938
upperback -1.96411 0.204287 0.0291649
thorax -4.68158 0.378495 5.28997
lowerneck -16.0443 1.42012 1.79699
upperneck 20.8163 1.99756 -2.90146
head 9.24808 0.675113 -1.05737
rclavicle 1.19271e-014 -1.0635e-014
rhumerus -35.1382 -20.325 -77.5268
rradius 14.3836
rwrist 19.8761
rhand -29.0139 -17.7056
rfingers 7.12502
rthumb -2.3651 -47.6723
lclavicle 1.19271e-014 -1.0635e-014
lhumerus -18.3313 -12.8431 91.4129
lradius 32.2825
lwrist 13.1021
lhand -33.1276 15.9802
lfingers 7.12502
lthumb -6.33738 45.8654
rfemur -32.7587 2.37392 16.7894
rtibia 41.5873
rfoot -16.2253 -20.0599
rtoes -12.2081
lfemur -3.15927 -3.33065 -31.7324
ltibia 18.6138
lfoot -13.8336 7.92181
ltoes -10.7667
3204
root 1.12099 15.6976 -2.1596 5082.89 -97.5038 -5078.74
lowerback 4.48008 0.62874 -9.49508
upperback -1.99599 0.212708 0.00199573
thorax -4.66366 0.385219 5.32004
lowerneck -16.0559 1.37281 1.79504
upperneck 20.801 1.92928 -2.8869
head 9.24288 0.64522 -1.06048
rclavicle -1.11319e-014 1.51076e-014
rhumerus -34.327 -19.7443 -78.3997
rradius 14.6314
rwrist 19.1441
rhand -29.0744 -17.6237
rfingers 7.12502
rthumb -2.42358 -47.5897
lclavicle -1.11319e-014 1.51076e-014
lhumerus -18.5228 -12.7783 91.4411
lradius 32.1483
lwrist 12.9318
lhand -33.1098 15.8931
lfingers 7.12502
lthumb -6.32021 45.7788
rfemur -32.8051 3.1161 16.5807
rtibia 39.0201
rfoot -16.0748 -19.7752
rtoes -13.4233
lfemur -2.23334 -3.29488 -31.8518
ltibia 17.5376
lfoot -13.6192 7.7559
ltoes -11.1984
3205
root 1.13407 15.708 -2.16341 5083.89 -97.5069 -5079.53
lowerback 4.34536 0.637245 -9.57913
upperback -2.03229 0.229585 -0.0214016
thorax -4.62928 0.394926 5.34119
lowerneck -16.0797 1.34188 1.79577
upperneck 20.8102 1.88941 -2.90029
head 9.24953 0.625086 -1.07023
rclavicle 3.18055e-015 -1.56046e-014
rhumerus -33.4844 -19.1279 -79.2666
rradius 14.9147
rwrist 18.3978
rhand -28.9461 -17.7425
rfingers 7.12502
rthumb -2.29966 -47.7099
lclavicle 3.18055e-015 -1.56046e-014
lhumerus -18.7804 -12.5984 91.4691
lradius 32.0505
lwrist 12.9293
lhand -33.1548 15.7859
lfingers 7.12502
lthumb -6.3637 45.6703
rfemur -32.8123 4.04561 16.2605
rtibia 36.455
rfoot -16.401 -19.5239
rtoes -13.4349
lfemur -1.25837 -3.11796 -31.946
ltibia 16.372
lfoot -13.3051 7.47609
ltoes -11.9596
3206
root 1.14512 15.7155 -2.16764 5084.96 -97.4371 -5080.44
lowerback 4.226 0.64898 -9.56847
upperback -2.05608 0.255846 -0.0518086
thorax -4.59045 0.405771 5.30088
lowerneck -16.0414 1.29434 1.78226
upperneck 20.7569 1.83051 -2.91466
head 9.22239 0.596096 -1.08006
rclavicle -5.56597e-015 6.85807e-015
rhumerus -32.6447 -18.4453 -80.1822
rradius 15.2512
rwrist 17.4962
rhand -28.9502 -17.8262
rfingers 7.12502
rthumb -2.30358 -47.7935
lclavicle -5.56597e-015 6.85807e-015
lhumerus -19.0758 -12.5058 91.5291
lradius 31.9068
lwrist 12.7518
lhand -33.1111 15.794
lfingers 7.12502
lthumb -6.3215 45.6797
rfemur -32.7455 4.94498 15.9512
rtibia 33.9245
rfoot -16.5574 -19.448
rtoes -14.0136
lfemur -0.16591 -3.0768 -31.9977
ltibia 15.1117
lfoot -12.9849 7.25659
ltoes -12.6428
3207
root 1.15664 15.7263 -2.17405 5086.29 -97.3336 -5081.51
lowerback 4.03784 0.645607 -9.5485
upperback -2.09625 0.268888 -0.0851772
thorax -4.52738 0.409061 5.25345
lowerneck -16.0188 1.25094 1.78103
upperneck 20.7064 1.76893 -2.90534
head 9.19894 0.569511 -1.08405
rclavicle -1.82882e-014 1.78906e-015
rhumerus -31.8047 -17.9965 -80.9994
rradius 15.6094
rwrist 16.6026
rhand -28.8719 -17.9169
rfingers 7.12502
rthumb -2.22796 -47.885
lclavicle -1.82882e-014 1.78906e-015
lhumerus -19.4022 -12.5661 91.6096
lradius 31.7536
lwrist 12.8042
lhand -33.1255 15.7639
lfingers 7.12502
lthumb -6.33539 45.6492
rfemur -32.7426 5.93972 15.573
rtibia 31.478
rfoot -16.8642 -19.5405
rtoes -14.144
lfemur 0.865748 -3.15197 -32.0274
ltibia 13.7916
lfoot -12.5548 7.02507
ltoes -13.1809
